<svg width="21" height="19" viewBox="0 0 21 19" fill="none" xmlns="http://www.w3.org/2000/svg">
<g clip-path="url(#clip0_3_127)">
<path d="M0.00348788 5.54358H20.4616V6.03608C20.4616 9.60798 20.4616 13.179 20.4616 16.7509C20.4616 18.1142 19.5786 18.9933 18.1892 18.9975C15.9032 19.0033 13.618 18.9991 11.332 18.9991C8.22807 18.9991 5.12417 18.9991 2.01942 18.9991C0.667279 18.9991 0.0153413 18.3755 0.00772124 17.0258C-0.00582552 14.7566 0.00348788 12.4882 0.00348788 10.219C0.00348788 8.67929 0.00348788 7.13875 0.00348788 5.54442V5.54358ZM9.99507 16.1433C10.2203 16.1433 10.4464 16.1475 10.6716 16.1433C11.1279 16.1341 11.2803 15.9895 11.2896 15.539C11.2989 15.0776 11.293 14.6154 11.2913 14.1531C11.2896 13.7867 11.1127 13.564 10.7342 13.5539C10.2406 13.5413 9.747 13.5455 9.25339 13.5522C8.88085 13.5572 8.67934 13.7463 8.6785 14.1262C8.6785 14.3641 8.68104 14.6019 8.67765 14.8398C8.65987 16.171 8.62516 16.166 9.99507 16.1441V16.1433ZM16.3841 14.8692C16.3841 14.6171 16.3849 14.3649 16.3841 14.1136C16.3824 13.7548 16.1876 13.5631 15.838 13.5539C15.3308 13.5404 14.8228 13.5421 14.3148 13.5539C13.9821 13.5615 13.7856 13.7514 13.7763 14.0808C13.7619 14.5986 13.7594 15.1171 13.778 15.634C13.7899 15.9635 13.9922 16.1399 14.33 16.1416C14.838 16.1441 15.3452 16.1441 15.8532 16.1416C16.1953 16.1399 16.3764 15.966 16.3832 15.6256C16.3883 15.3735 16.3841 15.1213 16.3849 14.87L16.3841 14.8692ZM15.0633 10.4417C15.3173 10.4417 15.5704 10.4392 15.8244 10.4417C16.2139 10.4459 16.3891 10.2509 16.3858 9.87188C16.3815 9.39619 16.3824 8.9205 16.3858 8.44564C16.3883 8.0666 16.1944 7.8691 15.8227 7.86069C15.33 7.84977 14.8363 7.85145 14.3436 7.85985C13.9677 7.86574 13.7755 8.07081 13.7721 8.44228C13.7687 8.91798 13.767 9.39367 13.7721 9.86852C13.7763 10.2375 13.96 10.4417 14.3444 10.4417C14.584 10.4417 14.8236 10.4417 15.0633 10.4417ZM9.9756 10.4417C10.2296 10.4417 10.4828 10.4392 10.7368 10.4417C11.1059 10.4468 11.2846 10.2551 11.2896 9.90298C11.2973 9.41384 11.2956 8.92386 11.2905 8.43472C11.2871 8.08677 11.1093 7.87246 10.7537 7.86321C10.233 7.84893 9.71059 7.84809 9.19073 7.86574C8.85715 7.87666 8.68188 8.07585 8.68019 8.41119C8.6785 8.91461 8.67426 9.41804 8.68273 9.92147C8.68866 10.2593 8.87916 10.4325 9.21614 10.4392C9.46929 10.4451 9.72329 10.44 9.97645 10.4409L9.9756 10.4417ZM4.90318 10.4434C5.79614 10.4434 6.24262 9.99683 6.24262 9.10372C6.24262 8.27167 5.81279 7.85565 4.95314 7.85565C4.07542 7.85565 3.63656 8.29408 3.63656 9.17095C3.63656 10.0187 4.05877 10.4425 4.90318 10.4425V10.4434ZM4.94721 16.1433C5.14448 16.1433 5.34176 16.1458 5.53903 16.1433C6.05297 16.1366 6.23161 15.9693 6.24008 15.4701C6.2477 15.0221 6.23923 14.5742 6.24177 14.1271C6.24431 13.7438 6.04196 13.5589 5.67027 13.5522C5.19105 13.5446 4.71184 13.5488 4.23262 13.5505C3.85754 13.5522 3.65434 13.7405 3.63995 14.1128C3.63063 14.3506 3.6391 14.5885 3.63571 14.8263C3.61455 16.1971 3.63402 16.1635 4.94721 16.1433Z" fill="black"/>
<path d="M16.311 0.0203986C17.0722 0.0203986 17.78 -0.0325496 18.476 0.0321649C19.6503 0.142263 20.3996 1.01885 20.4021 2.18455C20.4038 2.83926 20.4021 3.49313 20.4021 4.17137H0.0667515C0.0667515 3.21494 -0.0153758 2.27364 0.0904583 1.35335C0.188672 0.495251 0.897338 0.0128346 1.77364 0.00863233C2.33753 0.00611098 2.90141 0.0145155 3.4653 0.0203986C3.489 0.0203986 3.51271 0.0430907 3.58214 0.0792299C3.58214 0.627202 3.57875 1.19787 3.58298 1.76853C3.58637 2.26271 3.82175 2.53754 4.22137 2.53166C4.61762 2.52577 4.84707 2.24758 4.8513 1.7492C4.85638 1.1903 4.85215 0.630564 4.85215 0.0397289H15.0419C15.0419 0.507018 15.0419 0.989435 15.0419 1.47185C15.0419 1.63994 15.03 1.81055 15.0537 1.97528C15.1045 2.33079 15.3907 2.56443 15.7319 2.52745C16.0883 2.48795 16.3 2.2812 16.3068 1.91981C16.3178 1.30544 16.3102 0.691076 16.3102 0.0220795L16.311 0.0203986Z" fill="black"/>
</g>
<defs>
<clipPath id="clip0_3_127">
<rect width="20.4615" height="19" fill="white"/>
</clipPath>
</defs>
</svg>
