<svg width="22" height="19" viewBox="0 0 22 19" fill="none" xmlns="http://www.w3.org/2000/svg">
<g clip-path="url(#clip0_3_64)">
<path d="M10.7973 18.9601C9.48005 18.9601 8.16279 18.9635 6.84468 18.9592C5.73563 18.955 5.15348 18.4 5.15348 17.2952C5.15348 15.9516 5.0753 14.5918 5.24442 13.2669C5.57161 10.6962 7.57979 8.95482 10.2067 8.83924C10.9953 8.8044 11.8044 8.8095 12.5777 8.94548C14.6582 9.31006 16.4607 11.3369 16.5865 13.4531C16.6646 14.7661 16.6476 16.0867 16.6221 17.4023C16.6018 18.4374 16.1437 18.8819 15.0882 18.9303C13.9995 18.9796 12.9083 18.9805 11.818 18.9991C11.478 19.0051 11.1381 19 10.7982 19V18.9618L10.7973 18.9601Z" fill="black"/>
<path d="M10.8746 7.39532C8.82479 7.38767 7.18119 5.73132 7.19479 3.68659C7.20838 1.64356 8.87918 -0.0136365 10.9095 -3.89874e-05C12.9491 0.0135585 14.6003 1.6852 14.5893 3.72228C14.5774 5.77381 12.9295 7.40297 10.8746 7.39532Z" fill="black"/>
<path d="M3.85491 17.5697C2.88014 17.5697 1.91981 17.6097 0.965436 17.5544C0.435983 17.5238 0.0195582 16.9706 0.0144591 16.408C0.00171146 14.7805 -0.0144356 13.1531 0.0204081 11.5265C0.0459034 10.3282 0.94334 9.24975 2.13992 8.95655C3.01526 8.74239 3.9127 8.75854 4.78549 9.00074C5.10079 9.08828 5.38633 9.28629 5.66678 9.42482C5.65148 9.51915 5.65658 9.55399 5.64214 9.57014C4.31128 10.9333 3.88126 12.6262 3.85746 14.4636C3.84386 15.4817 3.85491 16.5006 3.85491 17.5714V17.5697Z" fill="black"/>
<path d="M17.9275 17.5562C17.9275 16.493 17.9385 15.474 17.925 14.4542C17.9012 12.6024 17.4907 10.8874 15.9984 9.44948C16.4819 9.24806 16.8754 8.98716 17.2961 8.93192C17.9632 8.84439 18.6567 8.82059 19.3238 8.89963C20.7439 9.0679 21.7629 10.2738 21.7731 11.7109C21.7833 13.2117 21.779 14.7134 21.7739 16.2151C21.7714 17.053 21.2657 17.5783 20.4388 17.5935C19.6603 17.608 18.881 17.5978 18.1017 17.5961C18.049 17.5961 17.9955 17.5723 17.9258 17.5562H17.9275Z" fill="black"/>
<path d="M3.39431 7.39365C2.1051 7.38686 1.07848 6.35769 1.07593 5.06933C1.07338 3.77331 2.13994 2.70846 3.42661 2.72205C4.70732 2.73565 5.73904 3.77671 5.74328 5.05998C5.74753 6.36449 4.70392 7.4013 3.39346 7.3945L3.39431 7.39365Z" fill="black"/>
<path d="M18.3737 7.39365C17.0819 7.39365 16.0527 6.37469 16.0408 5.08462C16.0281 3.78945 17.0853 2.72035 18.3762 2.72205C19.6705 2.7229 20.7218 3.7903 20.7082 5.08717C20.6946 6.37893 19.6671 7.3945 18.3737 7.3945V7.39365Z" fill="black"/>
</g>
<defs>
<clipPath id="clip0_3_64">
<rect width="21.7807" height="19" fill="white"/>
</clipPath>
</defs>
</svg>
