<svg width="19" height="19" viewBox="0 0 19 19" fill="none" xmlns="http://www.w3.org/2000/svg">
<g clip-path="url(#clip0_3_121)">
<path d="M18.9699 4.35277C18.9699 5.18194 18.9803 6.0111 18.9672 6.84026C18.9515 7.87246 18.3202 8.50382 17.2801 8.51168C15.5995 8.52347 13.9189 8.52478 12.2396 8.51168C11.2402 8.50382 10.5957 7.86722 10.5866 6.87563C10.5721 5.17408 10.5721 3.47121 10.5866 1.76966C10.5957 0.776765 11.2389 0.141466 12.2383 0.133607C13.9189 0.120508 15.5982 0.121818 17.2788 0.133607C18.3162 0.140156 18.9502 0.772835 18.9659 1.80372C18.979 2.65515 18.9686 3.50527 18.9686 4.3567L18.9699 4.35277Z" fill="black"/>
<path d="M4.27418 18.9935C3.44502 18.9935 2.61586 19.0026 1.7867 18.9909C0.754501 18.9764 0.115273 18.3438 0.107414 17.3129C0.0956245 15.6323 0.0956245 13.9517 0.107414 12.2724C0.115273 11.2441 0.757121 10.6167 1.80111 10.6102C3.45943 10.5997 5.11775 10.601 6.77608 10.6102C7.85281 10.6167 8.48156 11.2441 8.48811 12.3209C8.49859 13.9792 8.49859 15.6375 8.48811 17.2959C8.48156 18.3647 7.84495 18.9817 6.76167 18.9935C5.93251 19.0013 5.10335 18.9948 4.27418 18.9948V18.9935Z" fill="black"/>
<path d="M10.5839 14.7402C10.5839 13.911 10.5721 13.0819 10.5865 12.2527C10.6036 11.2572 11.2362 10.6193 12.2344 10.6114C13.9359 10.5983 15.6388 10.5957 17.3404 10.6114C18.328 10.6206 18.9594 11.269 18.9659 12.2737C18.979 13.9543 18.979 15.6349 18.9659 17.3141C18.9581 18.3476 18.3215 18.9829 17.2853 18.9908C15.6047 19.0026 13.9241 19.0039 12.2449 18.9908C11.2179 18.9829 10.597 18.3385 10.5839 17.2945C10.5734 16.4431 10.5813 15.5929 10.5826 14.7415L10.5839 14.7402Z" fill="black"/>
<path d="M4.24397 0C4.671 0.23971 5.0954 0.386418 5.39668 0.665426C6.27431 1.48018 7.11264 2.33947 7.94835 3.19876C8.67534 3.94671 8.66879 4.80993 7.93001 5.56967C7.11002 6.41324 6.27824 7.24633 5.43336 8.06632C4.67755 8.79986 3.81695 8.80117 3.06114 8.06763C2.20054 7.23323 1.35173 6.38704 0.519946 5.52382C-0.182156 4.79421 -0.171677 3.93492 0.539595 3.20138C1.374 2.34078 2.21233 1.4828 3.08996 0.666736C3.39123 0.387728 3.81564 0.24102 4.24397 0Z" fill="black"/>
</g>
<defs>
<clipPath id="clip0_3_121">
<rect width="18.9764" height="19" fill="white"/>
</clipPath>
</defs>
</svg>
