<svg width="19" height="19" viewBox="0 0 19 19" fill="none" xmlns="http://www.w3.org/2000/svg">
<g clip-path="url(#clip0_3_87)">
<path d="M10.3916 0C10.3916 0.913875 10.3902 1.76692 10.3916 2.61997C10.3931 3.14664 10.5808 3.33653 11.103 3.33876C11.9657 3.34099 12.8284 3.33876 13.7104 3.33876V5.86008C12.7379 5.90013 12.1163 6.38007 11.8982 7.36144C11.7869 7.33548 11.6942 7.31248 11.6008 7.29246C10.8649 7.1352 10.178 7.42078 9.7819 8.06317C9.55492 8.43109 9.34574 8.8094 9.12914 9.184C8.5053 10.264 8.55203 10.7959 9.36725 11.7342C8.80943 12.2483 8.5461 12.8707 8.8072 13.6221C8.90734 13.9099 9.08315 14.1725 9.23224 14.4418C9.39395 14.7333 9.56085 15.0218 9.73146 15.3082C10.1706 16.047 10.8567 16.3318 11.689 16.1271C11.7476 16.113 11.8077 16.1048 11.893 16.0892C12.1126 17.0506 12.7179 17.5506 13.726 17.5839C13.726 17.891 13.7452 18.187 13.7208 18.4793C13.6948 18.7901 13.4982 18.9681 13.1859 18.9926C13.0012 19.0067 12.8151 18.997 12.6296 18.997C8.68555 18.997 4.7415 18.997 0.796702 18.997C0.166929 18.997 -0.00219727 18.8324 -0.00219727 18.2167C2.80798e-05 12.4056 2.80798e-05 6.59518 2.80798e-05 0.785547C2.80798e-05 0.164676 0.166929 0 0.794476 0C3.86026 0 6.92679 0 9.99331 0H10.3916ZM6.87857 4.49223C5.48328 4.49223 4.08725 4.49223 2.69195 4.49297C2.55695 4.49297 2.4175 4.49001 2.28694 4.51968C2.011 4.58199 1.86116 4.77411 1.86413 5.05079C1.86709 5.32748 2.0199 5.51589 2.29658 5.57449C2.41601 5.59971 2.54211 5.59823 2.66525 5.59823C5.46919 5.59971 8.27238 5.59971 11.0763 5.59823C11.1995 5.59823 11.3256 5.59897 11.4442 5.57227C11.7202 5.50847 11.8693 5.31709 11.8663 5.04041C11.8641 4.76372 11.7113 4.57383 11.4339 4.51671C11.3026 4.49001 11.1638 4.49297 11.0288 4.49223C9.64542 4.49075 8.26199 4.49149 6.87931 4.49149L6.87857 4.49223ZM5.3824 7.82654C6.08635 7.82654 6.78956 7.82654 7.49351 7.82654C7.78948 7.82654 8.08693 7.83618 8.38142 7.81541C8.69519 7.79316 8.87545 7.60178 8.89993 7.28949C8.92292 6.99871 8.69965 6.76579 8.3792 6.72722C8.29389 6.71683 8.20636 6.71906 8.12031 6.71906C6.2933 6.71906 4.4663 6.71832 2.64003 6.7198C2.51764 6.7198 2.35519 6.69087 2.27952 6.75541C2.11633 6.89486 1.92273 7.06844 1.87822 7.25982C1.81739 7.52018 2.0021 7.72862 2.27581 7.79613C2.40488 7.82802 2.54508 7.82506 2.68009 7.8258C3.58135 7.82802 4.48262 7.82728 5.38314 7.82728L5.3824 7.82654ZM5.37943 15.6219C4.651 15.6219 3.92257 15.6219 3.19488 15.6219C2.92339 15.6219 2.65116 15.6123 2.38041 15.6331C2.06663 15.6568 1.88638 15.8467 1.8619 16.159C1.83965 16.4498 2.06292 16.6827 2.38337 16.7212C2.46868 16.7316 2.55621 16.7294 2.64225 16.7294C4.46926 16.7294 6.29627 16.7301 8.12254 16.7287C8.24493 16.7287 8.40738 16.7576 8.48304 16.6931C8.64624 16.5536 8.83984 16.38 8.88435 16.1886C8.94517 15.9283 8.76121 15.7198 8.4875 15.6523C8.35843 15.6204 8.21823 15.6234 8.08322 15.6227C7.18196 15.6204 6.28069 15.6212 5.38017 15.6212L5.37943 15.6219ZM4.82013 10.0526C5.57303 10.0526 6.3252 10.0556 7.07811 10.0511C7.54172 10.0482 7.79838 9.83751 7.78948 9.48442C7.78058 9.14691 7.52986 8.94737 7.08775 8.94589C5.58268 8.94218 4.07686 8.94218 2.57179 8.94589C2.10966 8.94663 1.85077 9.16026 1.86042 9.51261C1.86932 9.85309 2.11633 10.0482 2.56288 10.0511C3.31579 10.0563 4.06796 10.0526 4.82087 10.0526H4.82013ZM4.80529 12.278C5.57007 12.278 6.33559 12.2817 7.10036 12.2765C7.54098 12.2735 7.78874 12.0673 7.78948 11.7246C7.78948 11.3834 7.54098 11.1735 7.10185 11.172C5.58416 11.1675 4.06648 11.1675 2.54879 11.172C2.11188 11.1735 1.86042 11.3841 1.85968 11.7231C1.85968 12.0651 2.10817 12.2728 2.54731 12.2757C3.30022 12.2817 4.05238 12.2772 4.80529 12.2772V12.278ZM4.80752 14.5041C5.57229 14.5041 6.33781 14.5078 7.10259 14.5026C7.5395 14.4996 7.79022 14.2889 7.78948 13.9485C7.78874 13.605 7.54247 13.3995 7.09962 13.3981C5.58194 13.3936 4.06425 13.3936 2.54657 13.3981C2.10966 13.3995 1.85893 13.611 1.85968 13.9514C1.86116 14.2904 2.11262 14.4989 2.54953 14.5018C3.30244 14.507 4.05461 14.5033 4.80752 14.5033V14.5041Z" fill="black"/>
<path d="M12.0414 14.7133C11.9627 14.7548 11.8856 14.7926 11.8107 14.8342C11.0956 15.2355 10.9502 15.1939 10.5318 14.47C10.3338 14.128 10.1313 13.7883 9.94063 13.4426C9.72848 13.0576 9.78189 12.7505 10.1706 12.5762C10.5719 12.3967 10.6157 12.1319 10.6275 11.7387C10.6409 11.3033 10.5489 11.0355 10.1328 10.8463C9.79525 10.6928 9.73071 10.3902 9.90874 10.063C10.1684 9.58606 10.4406 9.11503 10.7232 8.65142C10.902 8.35767 11.1816 8.28646 11.4924 8.43704C11.6801 8.52828 11.8589 8.63881 12.0384 8.73895C12.1652 8.65438 12.2691 8.55499 12.393 8.50974C12.8581 8.33764 13.0895 8.05948 13.0316 7.52243C12.9975 7.20494 13.2571 7.00318 13.5835 6.99353C14.1273 6.97722 14.6717 6.97722 15.2154 6.99279C15.5915 7.00318 15.8193 7.22942 15.7948 7.61515C15.7688 8.01868 15.8986 8.22934 16.268 8.43778C16.6545 8.65513 16.9297 8.7293 17.3125 8.45781C17.6188 8.24047 17.9148 8.35619 18.121 8.69741C18.3829 9.13061 18.6358 9.56974 18.8821 10.0118C19.0927 10.3887 19.0312 10.6906 18.6425 10.879C18.282 11.0533 18.1841 11.2677 18.1826 11.672C18.1803 12.1326 18.2679 12.4182 18.71 12.6162C19.0245 12.7572 19.0809 13.0702 18.9132 13.3773C18.6536 13.8543 18.3829 14.326 18.0988 14.7889C17.9014 15.1101 17.5966 15.1939 17.2702 14.9721C16.9304 14.7414 16.6871 14.7622 16.3244 14.9758C15.9379 15.2036 15.7488 15.4165 15.7911 15.8779C15.8237 16.2272 15.573 16.4468 15.208 16.4572C14.6769 16.472 14.1443 16.472 13.6132 16.4572C13.2341 16.4461 12.9856 16.2243 13.025 15.8437C13.0739 15.3779 12.8862 15.142 12.4812 14.9907C12.324 14.9321 12.1905 14.8097 12.0391 14.7125L12.0414 14.7133ZM14.421 13.2905C15.3007 13.2861 15.9862 12.5858 15.9765 11.7031C15.9669 10.8367 15.2829 10.1602 14.4158 10.158C13.5368 10.1558 12.8373 10.8508 12.8388 11.7268C12.8395 12.6014 13.542 13.2957 14.421 13.2905Z" fill="black"/>
<path d="M11.5228 0.0808105C12.611 0.294444 13.4997 1.19645 13.6384 2.20824C13.5546 2.21492 13.4722 2.22679 13.3892 2.22679C12.7735 2.22827 12.1585 2.22753 11.5228 2.22753V0.0808105Z" fill="black"/>
</g>
<defs>
<clipPath id="clip0_3_87">
<rect width="19.0067" height="19" fill="white"/>
</clipPath>
</defs>
</svg>
