<svg width="30" height="21" viewBox="0 0 30 21" fill="none" xmlns="http://www.w3.org/2000/svg">
<g clip-path="url(#clip0_3_152)">
<path d="M0 10.7936C0.117826 11.0463 0.256303 11.2889 0.414021 11.5189C0.545046 11.6721 0.708057 11.7947 0.891569 11.878C1.07508 11.9613 1.27462 12.0034 1.47615 12.0012C1.60192 12.0012 1.72946 12.0012 1.85699 12.0012C10.6545 12.0012 19.452 12.0012 28.2496 12.0012C28.5028 12.0071 28.7555 11.9747 28.999 11.9051C29.3166 11.7981 29.5882 11.5861 29.7692 11.304C29.9502 11.0219 30.0297 10.6866 29.9948 10.3532C29.9618 10.0201 29.8178 9.70772 29.5858 9.46646C29.3538 9.2252 29.0475 9.06907 28.716 9.02321C28.5514 9.00311 28.3857 8.99435 28.2199 8.997C19.4422 8.997 10.6638 8.9935 1.88494 8.98651C0.952083 8.98651 0.298725 9.28886 0 10.2099V10.7936Z" fill="black"/>
<path d="M0 1.76686C0.190415 2.37505 0.54329 2.81547 1.19664 2.96052C1.33075 2.98618 1.46717 2.99789 1.60369 2.99548H20.9072C21.7266 2.99548 22.3362 2.50613 22.4795 1.74589C22.539 1.40606 22.4781 1.05609 22.3071 0.756449C22.1361 0.456811 21.8659 0.22633 21.5431 0.10483C21.3506 0.0369998 21.148 0.00271431 20.9439 0.00346566C14.4803 0.00346566 8.01666 0.00346566 1.55302 0.00346566C1.22389 -0.0123044 0.898916 0.0822841 0.629615 0.272236C0.360314 0.462188 0.162097 0.736635 0.0663841 1.05207C0.0483316 1.0946 0.0267097 1.13552 0.00174863 1.1744L0 1.76686Z" fill="black"/>
<path d="M0 19.8203C0.0745665 19.9972 0.16094 20.1688 0.258542 20.3341C0.393259 20.5452 0.580544 20.7175 0.801983 20.8343C1.02342 20.951 1.2714 21.0081 1.52157 21H5.47487C8.62633 21 11.7784 21 14.931 21C15.752 21 16.3635 20.4914 16.477 19.7329C16.5111 19.5227 16.4996 19.3075 16.4434 19.1021C16.3873 18.8966 16.2877 18.7056 16.1514 18.5419C16.0151 18.3782 15.8453 18.2457 15.6535 18.1533C15.4616 18.0609 15.2522 18.0107 15.0393 18.0062C14.5519 17.994 14.0628 18.0062 13.5754 18.0062H1.83602C0.765156 18.0062 0.405287 18.2474 0 19.2296V19.8203Z" fill="black"/>
</g>
<defs>
<clipPath id="clip0_3_152">
<rect width="30" height="21" fill="white"/>
</clipPath>
</defs>
</svg>
