<svg width="20" height="20" viewBox="0 0 20 20" fill="none" xmlns="http://www.w3.org/2000/svg">
<g clip-path="url(#clip0_3_1117)">
<path d="M10.0279 -0.000241699C15.6011 0.0281348 20.0382 4.53236 20.0001 10.1225C19.9619 15.5479 15.4177 20.0325 9.98968 19.9998C4.42413 19.9659 -0.0174093 15.4966 5.13043e-05 9.94683C0.0175119 4.43305 4.5147 -0.0275268 10.0279 -0.000241699ZM18.0008 10.0123C18.0379 5.62814 14.4869 2.0385 10.0661 1.99048C5.61908 1.94246 2.03421 5.48953 1.99165 9.97848C1.95018 14.3605 5.49359 17.9425 9.9253 18.0014C14.3526 18.0603 17.9615 14.4882 17.9997 10.0112L18.0008 10.0123Z" fill="#242E69"/>
<path d="M14.9952 9.96895C15.0334 12.6669 12.8028 14.9458 10.0746 14.9971C7.31801 15.0484 5.02958 12.8066 4.99357 10.0192C4.95865 7.31902 7.18705 5.04344 9.91636 4.99105C12.6751 4.93757 14.9559 7.17168 14.9952 9.96895Z" fill="#242E69"/>
</g>
<defs>
<clipPath id="clip0_3_1117">
<rect width="20" height="20" fill="white"/>
</clipPath>
</defs>
</svg>
