<svg width="124" height="37" viewBox="0 0 124 37" fill="none" xmlns="http://www.w3.org/2000/svg">
<g clip-path="url(#clip0_3_91)">
<path d="M108.855 17.0017C106.946 13.2827 102.319 8.26062 90.3448 9.18692C89.1127 9.26421 87.8918 8.90904 86.8876 8.18113C77.8081 1.81803 71.6131 0.404391 64.5111 0.0898653C62.9734 0.0207387 61.3948 0.00345633 59.7378 0H58.0603C42.2641 0 34.9439 4.25128 32.9835 5.63382C32.5827 5.91441 32.1068 6.06397 31.6197 6.0624H17.5862C17.4878 6.0624 17.3905 6.04271 17.2997 6.00445C17.2088 5.9662 17.1264 5.91013 17.057 5.83948C16.9876 5.76882 16.9327 5.68497 16.8954 5.59274C16.858 5.5005 16.8391 5.4017 16.8395 5.30201C16.8386 5.10094 16.7592 4.90842 16.6186 4.76656C16.478 4.62471 16.2878 4.54507 16.0894 4.54507H14.429C14.2306 4.54507 14.0404 4.62471 13.8998 4.76656C13.7592 4.90842 13.6798 5.10094 13.6789 5.30201V6.82279C13.6798 7.02418 13.7591 7.21706 13.8996 7.35947C14.0401 7.50187 14.2303 7.58228 14.429 7.58318H22.0083C22.0987 7.58318 22.1855 7.6196 22.2494 7.68442C22.3133 7.74924 22.3493 7.83715 22.3493 7.92882C22.3493 8.02048 22.3133 8.1084 22.2494 8.17322C22.1855 8.23804 22.0987 8.27445 22.0083 8.27445C14.0335 8.35395 13.1266 15.5327 13.1436 18.875C13.1438 19.3358 12.9762 19.7804 12.6729 20.1235C12.3696 20.4667 11.952 20.6843 11.5002 20.7345L0 21.9615H11.8582C12.3002 21.9626 12.738 21.8739 13.1456 21.7007C13.5533 21.5275 13.9226 21.2733 14.2318 20.9531C14.541 20.6329 14.7838 20.2531 14.9459 19.8363C15.108 19.4194 15.1861 18.9739 15.1757 18.5259C15.0768 14.724 16.5395 13.0373 17.4839 13.096C20.6991 13.096 22.8641 21.0076 22.8641 21.0076C23.263 14.7067 20.6479 12.9336 19.1136 11.8483C18.9394 11.7257 18.8033 11.5553 18.7213 11.3571C18.6392 11.1588 18.6146 10.941 18.6504 10.729C18.6862 10.5171 18.7809 10.32 18.9233 10.1607C19.0658 10.0014 19.2501 9.88664 19.4546 9.8298C22.2401 9.08323 28.3193 9.76413 28.3193 9.76413C33.7745 13.1721 40.648 12.7953 40.648 12.7953C37.4363 12.3391 29.8877 8.627 29.8877 8.627C43.8666 13.2481 56.867 12.0833 56.867 12.0833C53.3348 15.0385 54.1769 19.4695 54.1769 19.4695C54.1769 16.0616 58.4354 13.3345 60.1503 13.3345C66.0692 13.3345 67.9069 20.7172 67.9069 20.7172C68.7457 13.9567 62.3495 12.0177 62.3495 12.0177C68.9605 12.0177 77.5933 13.9878 77.5933 13.9878C71.0914 10.3897 60.1503 10.483 60.1503 10.483C60.1503 10.483 52.3085 2.70631 52.8643 2.10145C54.9713 1.583 57.883 1.51041 60.8629 1.57608C62.6495 1.6141 64.46 1.70397 66.1374 1.78001C67.6206 1.84568 69.0014 1.90098 70.164 1.90098C74.4225 1.90098 85.026 8.33321 86.8501 9.46343C86.87 9.47468 86.8858 9.49215 86.8951 9.51324C86.9044 9.53432 86.9067 9.55789 86.9017 9.58043C86.8968 9.60297 86.8847 9.62327 86.8674 9.63831C86.8502 9.65335 86.8285 9.66233 86.8058 9.66389L73.5258 10.5591C101.33 12.1455 102.524 9.97151 107.365 18.087C107.419 18.1772 107.449 18.28 107.453 18.3854C107.456 18.4908 107.433 18.5954 107.386 18.6893C107.338 18.7831 107.268 18.8631 107.181 18.9216C107.095 18.9801 106.995 19.0153 106.891 19.0236L82.636 20.9937H106.434C106.896 20.9897 107.35 20.8667 107.752 20.6364C108.154 20.406 108.492 20.0758 108.734 19.6768C108.976 19.2778 109.114 18.823 109.135 18.355C109.157 17.8871 109.06 17.4214 108.855 17.0017ZM57.5387 10.9842C56.6999 11.3713 53.6177 11.6755 53.3348 10.6904C53.0518 9.70537 55.0395 8.41962 54.5826 7.79402C54.1258 7.16843 50.0685 6.56357 48.2512 8.65119C48.1965 8.71309 48.1564 8.78675 48.1339 8.86663C48.1114 8.9465 48.107 9.03052 48.1211 9.11236C48.1352 9.1942 48.1674 9.27173 48.2154 9.33912C48.2633 9.40652 48.3257 9.46201 48.3978 9.50145C49.2522 9.90358 50.1834 10.1101 51.1254 10.1063C51.2068 10.1029 51.2876 10.1217 51.3595 10.1607C51.4313 10.1996 51.4916 10.2574 51.534 10.3279C51.5764 10.3984 51.5995 10.4791 51.6008 10.5617C51.6021 10.6443 51.5816 10.7257 51.5414 10.7976C51.4421 10.9813 51.2931 11.1323 51.1118 11.2328C50.9305 11.3332 50.7246 11.3789 50.5185 11.3644C49.6218 11.3644 37.2624 10.7941 33.3006 7.60046C33.3006 7.60046 37.8931 3.32499 46.3589 2.41597C47.7693 2.26083 49.1933 2.53392 50.4503 3.20056C52.5403 4.27548 55.1486 6.57394 57.5387 10.9842Z" fill="#242E69"/>
<path d="M55.2373 10.5867C54.8408 10.6087 54.4438 10.5536 54.0678 10.4243C54.2236 10.1096 54.4159 9.8149 54.6406 9.54639C54.8569 9.2851 55.0486 9.00391 55.2134 8.70651L55.2339 8.67194C55.6225 9.22496 56.0146 9.82981 56.4033 10.4969C56.0175 10.5574 55.6276 10.5874 55.2373 10.5867ZM48.8547 10.5073C47.4704 10.4139 45.394 10.2377 43.1813 9.91277C39.2569 9.33901 36.318 8.53023 34.5859 7.5279C35.3765 6.94781 36.2084 6.42794 37.0749 5.97255C39.9992 4.4389 43.1823 3.4774 46.4578 3.13836C46.6843 3.11387 46.9119 3.10118 47.1397 3.10034C48.1751 3.10026 49.1951 3.35403 50.1128 3.84C51.4049 4.55882 52.5679 5.49365 53.553 6.60506C53.0688 6.51912 52.5784 6.47518 52.0869 6.47372C50.9924 6.47372 48.9638 6.69147 47.6852 8.16386C47.5542 8.31023 47.4578 8.48489 47.4032 8.67461C47.3486 8.86434 47.3373 9.06417 47.3702 9.25897C47.403 9.45378 47.4792 9.63845 47.5928 9.79903C47.7065 9.9596 47.8547 10.0919 48.0262 10.1858C48.2923 10.3178 48.5696 10.4253 48.8547 10.5073Z" fill="#EB4643"/>
<path d="M78.8344 12.2492C80.0277 12.2078 81.221 12.1663 82.4178 12.1352C83.0144 12.1352 83.6111 12.1006 84.2078 12.0903L86.0011 12.0591C86.6012 12.0591 87.1979 12.0591 87.798 12.0591C88.398 12.0591 88.9913 12.0591 89.5913 12.0591C90.1914 12.0591 90.7881 12.0591 91.3882 12.0937C91.9882 12.1283 92.5849 12.1352 93.185 12.1663C93.785 12.1974 94.3817 12.2389 94.9818 12.2873C95.5818 12.3357 96.1819 12.3944 96.7786 12.4635C97.3752 12.5327 97.9753 12.626 98.572 12.7297C99.1686 12.8334 99.7619 12.9647 100.352 13.1202C100.648 13.1997 100.942 13.2827 101.235 13.3795L101.453 13.452L101.671 13.5281C101.818 13.5799 101.961 13.6421 102.104 13.6974C102.391 13.8184 102.674 13.9428 102.953 14.0915C103.093 14.1606 103.229 14.247 103.366 14.3265L103.567 14.4544C103.632 14.4959 103.696 14.5442 103.761 14.5926C103.894 14.6825 104.02 14.7862 104.146 14.8864L104.327 15.0523L104.416 15.1387L104.501 15.2286C104.731 15.4708 104.931 15.74 105.098 16.0305L105.214 16.2551L105.309 16.4936C105.369 16.6522 105.417 16.8151 105.452 16.981C105.521 17.3103 105.547 17.6472 105.531 17.9833C105.529 18.0513 105.508 18.1175 105.47 18.1734C105.432 18.2294 105.378 18.2726 105.316 18.2978L105.224 18.3324H105.152H105.088H105.023H104.903L104.787 18.3497L104.337 18.3911L103.448 18.443C102.854 18.4706 102.268 18.4914 101.678 18.5052C100.498 18.5363 99.322 18.5536 98.1458 18.564C96.9695 18.5743 95.7898 18.5847 94.6135 18.5882C93.4373 18.5916 92.261 18.5882 91.0847 18.5882C92.261 18.5328 93.4338 18.4706 94.6101 18.4084C95.7864 18.3462 96.9593 18.2771 98.1321 18.2045C99.305 18.1319 100.478 18.0524 101.651 17.9626C102.234 17.9176 102.82 17.8692 103.4 17.8105C103.693 17.7828 103.983 17.7517 104.269 17.7137C104.412 17.6964 104.556 17.6757 104.692 17.6515L104.794 17.6342L104.893 17.6135H104.937H104.982H105.016L104.801 17.9349C104.815 17.3971 104.682 16.8658 104.416 16.4003C104.277 16.171 104.112 15.9587 103.925 15.7678L103.853 15.6952L103.778 15.6226L103.625 15.4878C103.516 15.3978 103.402 15.3135 103.284 15.2355C103.229 15.1932 103.172 15.154 103.113 15.118L102.933 15.0039C102.81 14.9348 102.691 14.8622 102.561 14.8C102.308 14.6717 102.048 14.5564 101.784 14.4544C101.647 14.4025 101.514 14.3472 101.378 14.2988L101.173 14.2263L100.969 14.1571C100.693 14.0638 100.413 13.9809 100.13 13.9014C99.5675 13.7458 98.9913 13.6214 98.4254 13.5073C97.8594 13.3933 97.2661 13.2965 96.6797 13.2136C95.5068 13.0442 94.3237 12.9232 93.1372 12.8264C92.5474 12.7815 91.9507 12.74 91.3575 12.702C90.7642 12.664 90.1676 12.6364 89.5743 12.6087L87.7843 12.5396C87.1877 12.5188 86.591 12.4981 85.9943 12.4843L84.2043 12.4393L82.4144 12.4013L80.621 12.3633L78.831 12.3184C78.8219 12.3184 78.8133 12.3147 78.8069 12.3082C78.8005 12.3018 78.7969 12.293 78.7969 12.2838C78.7977 12.2743 78.8021 12.2655 78.809 12.2591C78.8159 12.2527 78.825 12.2492 78.8344 12.2492Z" fill="#EB4643"/>
<path d="M38.2614 17.1642H37.6272H36.993H35.7452H35.111H34.4768H33.8461H33.2119L31.9504 17.1296L30.6855 17.0881L29.424 17.0363L28.159 16.9775L28.6568 16.269C28.783 16.5455 28.9057 16.8254 29.0319 17.1054L29.4035 17.9418L30.1365 19.6251L29.6694 19.2794L30.7503 19.3624L31.8277 19.4453L32.9051 19.5387L33.9825 19.632L35.0599 19.7287L36.1373 19.8359L36.676 19.8877L37.2147 19.9465L38.2887 20.0606L39.366 20.1781L40.44 20.306L41.514 20.4373L42.5642 20.579L43.6381 20.7242C43.9961 20.7726 44.3541 20.8279 44.7121 20.8797C45.0701 20.9315 45.4281 20.9869 45.7827 21.0456C46.1373 21.1044 46.4987 21.1597 46.8533 21.2253C46.4919 21.2253 46.1305 21.2253 45.7691 21.2253H44.6849H43.6006L42.5164 21.1977L41.4356 21.1631C41.0742 21.1631 40.7128 21.1389 40.3548 21.1217L39.274 21.0767L38.1932 21.0214L37.109 20.9246L36.5669 20.8935L36.0282 20.8624L34.9473 20.7933L33.8699 20.7173C33.5085 20.6931 33.1505 20.6689 32.7891 20.6378L31.7117 20.5548C31.3503 20.5306 30.9923 20.4995 30.6343 20.4684L29.5569 20.3785C29.4567 20.3692 29.361 20.332 29.2804 20.271C29.1998 20.21 29.1374 20.1276 29.1001 20.0329L28.4182 18.3358L28.0772 17.4856C27.9613 17.2022 27.8454 16.9222 27.7363 16.6353V16.6111C27.7125 16.5499 27.7009 16.4845 27.7021 16.4186C27.7033 16.3528 27.7173 16.2879 27.7433 16.2275C27.7692 16.1672 27.8067 16.1126 27.8534 16.067C27.9002 16.0213 27.9554 15.9854 28.0158 15.9614C28.0882 15.9314 28.1665 15.9196 28.2443 15.9268L29.5024 16.0478L30.7605 16.1756L32.0186 16.3104L33.2733 16.4556L33.9006 16.5316L34.528 16.6111L35.1587 16.6906L35.7452 16.777L36.3725 16.8635L36.9999 16.9533L37.6238 17.0501C37.8454 17.0916 38.0534 17.1227 38.2614 17.1642Z" fill="#EB4643"/>
<path d="M79.206 6.21795L78.8651 6.10389L77.9479 5.75826C77.5558 5.61309 77.0751 5.43682 76.5295 5.22944C75.984 5.02206 75.3669 4.79048 74.6952 4.53817L72.5677 3.69829C72.1806 3.56263 71.7868 3.44726 71.388 3.35265L71.0812 3.28353L70.7675 3.21785L70.4504 3.16255L70.1265 3.11762C69.6899 3.06258 69.2504 3.03373 68.8105 3.03121H67.4126H67.3069C66.3965 3.03121 65.476 3.03121 64.5554 3.03121C63.6348 3.03121 62.7688 3.03121 61.8858 3.03121H61.7016H60.3003H58.9365C58.0398 3.03121 57.1738 3.00011 56.3487 2.97937H56.1544H56.1033C56.034 2.98885 55.9677 3.01363 55.9089 3.05195C55.8498 3.08799 55.7968 3.13351 55.7521 3.18675C55.6875 3.2687 55.6431 3.36499 55.6223 3.46772C55.6016 3.57046 55.6052 3.67671 55.6327 3.77778C55.6532 3.84295 55.6831 3.90468 55.7214 3.96097C55.7323 3.97088 55.7415 3.98256 55.7487 3.99553L55.7964 4.04737C55.8271 4.07502 55.8544 4.10613 55.885 4.13724C56.3931 4.65223 56.8568 5.12575 57.2659 5.54742C57.675 5.96909 58.0296 6.34238 58.3194 6.64653C58.6092 6.95069 58.8377 7.19263 59.0013 7.35854L59.2366 7.61085L58.9706 7.38964L58.2274 6.75714C57.9069 6.48063 57.5182 6.14882 57.075 5.76171L55.5952 4.45522L55.5475 4.41029L55.5202 4.38955L55.4691 4.34462L55.4077 4.27204C55.3324 4.18006 55.2725 4.07613 55.2304 3.96442C55.152 3.72902 55.152 3.474 55.2304 3.23859C55.2679 3.11456 55.3255 2.99775 55.4009 2.89296C55.4776 2.78702 55.5723 2.69574 55.6805 2.62337C55.7896 2.54713 55.9124 2.49313 56.0419 2.46437L56.1408 2.44364H56.1919H56.4033C57.2284 2.4229 58.108 2.40562 58.9911 2.39179L60.3549 2.37451C60.6958 2.37451 61.0641 2.37451 61.4221 2.37451H61.763C62.704 2.37451 63.6621 2.37451 64.6168 2.37451H66.6625H67.4705H68.8173C69.2879 2.38645 69.7572 2.43033 70.222 2.50585C70.6701 2.57518 71.1131 2.67448 71.5483 2.8031C71.9645 2.92318 72.3733 3.06861 72.7723 3.23859C72.8712 3.28007 72.9666 3.32154 73.0587 3.36648L73.3349 3.4909L73.8735 3.7363L74.8964 4.20636C75.5476 4.51052 76.1477 4.79049 76.6762 5.0428C77.2046 5.29511 77.6615 5.51977 78.04 5.70296C78.4184 5.88614 78.7219 6.04859 78.9162 6.13154L79.206 6.21795Z" fill="#EB4643"/>
<path d="M109.138 18.6434L124 21.0214H106.434" fill="#242E69"/>
<path d="M91.6678 35.0299H33.1369L6.64172 35.7868L31.9538 37H90.7574L117.358 35.7868L91.6678 35.0299Z" fill="#EB4643"/>
<path d="M8.26804 32.6036L5.74841 30.1841H3.447V32.6036H1.99115V25.2139H7.94754C9.49545 25.2139 10.0376 25.8257 10.0376 27.502V27.9513C10.0376 29.759 9.35566 30.1668 7.56568 30.1668L10.2694 32.5863L8.26804 32.6036ZM8.62944 27.7647C8.62944 27.0458 8.5442 26.7002 7.92027 26.7002H3.447V28.9917H7.92027C8.42828 28.9917 8.62944 28.7636 8.62944 28.1207V27.7647Z" fill="#242E69"/>
<path d="M18.4863 32.6036L17.576 30.8754H13.1777L12.2674 32.6036H10.6342L14.6301 25.2139H16.1235L20.1194 32.6036H18.4863ZM15.3836 26.6621L13.73 29.7244H17.0373L15.3836 26.6621Z" fill="#242E69"/>
<path d="M22.3049 30.2083V32.6036H20.8729V25.2139H26.3281C28.0022 25.2139 28.5341 25.7497 28.5341 27.4571V28.1242C28.5341 29.638 28.0022 30.198 26.3281 30.198L22.3049 30.2083ZM27.1259 27.4433C27.1259 26.8626 26.9146 26.6587 26.3418 26.6587H22.3049V28.8742H26.3418C26.9146 28.8742 27.1259 28.6495 27.1259 28.1207V27.4433Z" fill="#242E69"/>
<path d="M29.6081 32.6036V25.2139H31.0367V32.6036H29.6081Z" fill="#242E69"/>
<path d="M32.3357 32.6036V25.2139H38.4728C40.2423 25.2139 40.7606 25.805 40.7606 27.6092V30.2083C40.7606 32.0264 40.2423 32.6036 38.4728 32.6036H32.3357ZM39.332 27.6195C39.332 26.8902 39.1001 26.6725 38.4762 26.6725H33.7609V31.1657H38.4728C39.1172 31.1657 39.3286 30.9618 39.3286 30.2291L39.332 27.6195Z" fill="#242E69"/>
<path d="M51.5278 32.6036L49.0047 30.1841H46.7033V32.6036H45.2611V25.2139H51.2209C52.7688 25.2139 53.3075 25.8257 53.3075 27.502V27.9513C53.3075 29.759 52.6256 30.1668 50.839 30.1668L53.5394 32.5863L51.5278 32.6036ZM51.8892 27.7647C51.8892 27.0458 51.8039 26.7002 51.1766 26.7002H46.7033V28.9917H51.1766C51.6846 28.9917 51.8892 28.7636 51.8892 28.1207V27.7647Z" fill="#242E69"/>
<path d="M54.4088 32.6036V25.2139H61.4153V26.6725H55.8407V28.3073H61.2584V29.4998H55.8407V31.1554H61.4153V32.6036H54.4088Z" fill="#242E69"/>
<path d="M69.0389 32.6036L63.8974 27.146V32.5932H62.5336V25.2139H64.0712L69.073 30.5643V25.2139H70.4368V32.6036H69.0389Z" fill="#242E69"/>
<path d="M73.9316 32.6036V26.6725H71.2722V25.2139H78.023V26.6725H75.3636V32.6036H73.9316Z" fill="#242E69"/>
<path d="M89.5266 32.6036L88.6162 30.8754H84.218L83.3042 32.6036H81.6745L85.6704 25.2139H87.1638L91.1597 32.6036H89.5266ZM86.4205 26.6621L84.7669 29.7244H88.0741L86.4205 26.6621Z" fill="#242E69"/>
<path d="M97.4571 32.6036C95.7182 32.6036 95.1863 32.0471 95.1863 30.2083V27.6092C95.1863 25.76 95.7182 25.2139 97.4571 25.2139H101.548C101.914 25.1929 102.278 25.2855 102.59 25.4794C102.903 25.6734 103.15 25.9594 103.298 26.2992L102.384 27.2428C102.309 27.0598 102.178 26.9059 102.01 26.8034C101.843 26.7009 101.648 26.655 101.453 26.6725H97.4571C96.8195 26.6725 96.5979 26.911 96.5979 27.6092V30.2187C96.5979 30.8443 96.724 31.1554 97.4571 31.1554H101.494C101.688 31.1719 101.882 31.1255 102.048 31.023C102.214 30.9205 102.343 30.7671 102.418 30.5851L103.328 31.5183C103.181 31.859 102.935 32.1459 102.622 32.34C102.309 32.5341 101.945 32.6261 101.579 32.6036H97.4571Z" fill="#242E69"/>
<path d="M111.341 32.6036L110.43 30.8754H106.032L105.118 32.6036H103.488L107.484 25.2139H108.978L112.974 32.6036H111.341ZM108.234 26.6621L106.581 29.7244H109.888L108.234 26.6621Z" fill="#242E69"/>
<path d="M119.98 32.6036L117.457 30.1841H115.159V32.6036H113.717V25.2139H119.673C121.221 25.2139 121.76 25.8257 121.76 27.502V27.9513C121.76 29.759 121.095 30.1668 119.292 30.1668L121.995 32.5863L119.98 32.6036ZM120.342 27.7647C120.342 27.0458 120.256 26.7002 119.632 26.7002H115.159V28.9917H119.619C120.127 28.9917 120.328 28.7636 120.328 28.1207L120.342 27.7647Z" fill="#242E69"/>
</g>
<defs>
<clipPath id="clip0_3_91">
<rect width="124" height="37" fill="white"/>
</clipPath>
</defs>
</svg>
