<svg width="42" height="42" viewBox="0 0 42 42" fill="none" xmlns="http://www.w3.org/2000/svg">
<rect x="0.5" y="0.5" width="41" height="41" rx="9.5" fill="#F9F9F9"/>
<rect x="0.5" y="0.5" width="41" height="41" rx="9.5" stroke="#D9D9D9"/>
<path d="M27.834 23.579C27.7962 23.5599 27.7639 23.5316 27.7401 23.4966C27.7163 23.4616 27.7018 23.4211 27.698 23.379L27.198 17.913C27.0562 16.3666 26.3417 14.9291 25.1947 13.8824C24.0476 12.8357 22.5508 12.2554 20.998 12.2554C19.4452 12.2554 17.9484 12.8357 16.8013 13.8824C15.6543 14.9291 14.9398 16.3666 14.798 17.913L14.3 23.38C14.2964 23.4222 14.282 23.4627 14.2582 23.4978C14.2343 23.5328 14.2019 23.5611 14.164 23.58C13.5774 23.882 13.1203 24.3866 12.8775 25.0001C12.6348 25.6136 12.6229 26.2943 12.844 26.916C13.0225 27.4521 13.3657 27.9182 13.8247 28.2479C14.2836 28.5776 14.8349 28.754 15.4 28.752H26.605C27.2149 28.7429 27.8045 28.5307 28.2803 28.149C28.7561 27.7672 29.091 27.2377 29.232 26.6442C29.373 26.0507 29.3121 25.4271 29.0589 24.8721C28.8057 24.3172 28.3747 23.8615 27.834 23.579ZM19 31.5C18.7348 31.5 18.4804 31.3946 18.2929 31.2071C18.1054 31.0195 18 30.7652 18 30.5C18 30.2348 18.1054 29.9804 18.2929 29.7929C18.4804 29.6053 18.7348 29.5 19 29.5H23C23.2652 29.5 23.5196 29.6053 23.7071 29.7929C23.8946 29.9804 24 30.2348 24 30.5C24 30.7652 23.8946 31.0195 23.7071 31.2071C23.5196 31.3946 23.2652 31.5 23 31.5H19Z" fill="black"/>
<path d="M23 31.25H19C18.8011 31.25 18.6103 31.171 18.4697 31.0303C18.329 30.8897 18.25 30.6989 18.25 30.5C18.25 30.3011 18.329 30.1103 18.4697 29.9697C18.6103 29.829 18.8011 29.75 19 29.75H23C23.1989 29.75 23.3897 29.829 23.5303 29.9697C23.671 30.1103 23.75 30.3011 23.75 30.5C23.75 30.6989 23.671 30.8897 23.5303 31.0303C23.3897 31.171 23.1989 31.25 23 31.25ZM21 14C20.7348 14 20.4804 13.8946 20.2929 13.7071C20.1054 13.5196 20 13.2652 20 13V11C20 10.7348 20.1054 10.4804 20.2929 10.2929C20.4804 10.1054 20.7348 10 21 10C21.2652 10 21.5196 10.1054 21.7071 10.2929C21.8946 10.4804 22 10.7348 22 11V13C22 13.2652 21.8946 13.5196 21.7071 13.7071C21.5196 13.8946 21.2652 14 21 14Z" fill="black"/>
<path d="M21 13.75C20.8011 13.75 20.6103 13.671 20.4697 13.5303C20.329 13.3897 20.25 13.1989 20.25 13V11C20.25 10.8011 20.329 10.6103 20.4697 10.4697C20.6103 10.329 20.8011 10.25 21 10.25C21.1989 10.25 21.3897 10.329 21.5303 10.4697C21.671 10.6103 21.75 10.8011 21.75 11V13C21.75 13.1989 21.671 13.3897 21.5303 13.5303C21.3897 13.671 21.1989 13.75 21 13.75Z" fill="black"/>
</svg>
