<svg width="42" height="42" viewBox="0 0 42 42" fill="none" xmlns="http://www.w3.org/2000/svg">
<rect x="0.5" y="0.5" width="41" height="41" rx="9.5" fill="#F9F9F9"/>
<rect x="0.5" y="0.5" width="41" height="41" rx="9.5" stroke="#D9D9D9"/>
<g clip-path="url(#clip0_3_162)">
<path d="M8.12939 22.2221V19.6807C8.20379 19.306 8.28052 18.9314 8.35027 18.5556C9.53018 12.1759 15.6599 7.00026 23.1568 8.16483C30.0886 9.24242 34.7815 15.3228 34.0562 22.2882C33.4924 27.675 30.4873 31.3242 25.4317 33.2427C24.3855 33.6394 23.2358 33.7554 22.1338 34.0001H20.0506C19.7891 33.9595 19.5263 33.9236 19.2659 33.876C13.793 32.8645 10.2327 29.7072 8.58508 24.404C8.36654 23.6964 8.27819 22.9494 8.12939 22.2221ZM29.3458 29.343C34.0515 24.6591 34.0015 17.072 29.2877 12.5888C24.4436 7.98041 16.9282 8.22979 12.4317 13.1688C8.00269 18.0405 8.67344 25.3134 12.9572 29.3395C14.158 28.2132 15.6727 27.6379 17.163 27.0196C17.4651 26.8919 17.7546 26.7366 18.0279 26.5556C18.8358 26.0267 19.2101 24.6626 18.7126 23.8356C18.1534 22.9076 17.535 22.0041 16.8956 21.1248C16.4493 20.5124 16.3295 19.6262 16.8212 19.2399C17.313 18.8537 17.3141 18.428 17.2142 17.9118C17.1433 17.5534 17.0979 17.1903 17.0072 16.8377C16.7341 15.7659 17.0549 14.9041 17.9093 14.229C18.1314 14.0474 18.3722 13.8899 18.6277 13.7592C20.6307 12.7768 22.5023 13.0633 24.1367 14.5712C24.2038 14.6377 24.2826 14.6911 24.3692 14.7289C25.3213 15.0943 25.4062 15.1929 25.3178 16.1846C25.2643 16.7762 25.1086 17.3597 25.0748 17.9512C25.0562 18.2992 25.0667 18.7632 25.2678 19.0021C25.8863 19.7433 25.92 20.5101 25.2678 21.2478C25.0172 21.5596 24.7906 21.89 24.5901 22.236C24.3576 22.6061 24.1646 23.0132 23.8926 23.3589C22.9324 24.6 23.2323 26.0627 24.6238 26.7888C24.8621 26.9129 25.1074 27.0208 25.3562 27.1287C26.7744 27.7086 28.174 28.299 29.3458 29.343Z" fill="#808080"/>
</g>
<defs>
<clipPath id="clip0_3_162">
<rect width="26" height="26" fill="white" transform="translate(8.12939 8)"/>
</clipPath>
</defs>
</svg>
