<svg width="21" height="23" viewBox="0 0 21 23" fill="none" xmlns="http://www.w3.org/2000/svg">
<g clip-path="url(#clip0_3_73)">
<path d="M20.6905 16.2059C20.6879 19.7628 17.8139 22.6212 14.2484 22.6108C10.7236 22.6003 7.85569 19.7047 7.87565 16.1764C7.89561 12.6386 10.7704 9.78116 14.3013 9.7881C17.8339 9.79504 20.6931 12.6664 20.6905 16.2059ZM13.9099 16.7162C13.3928 16.1877 12.9268 15.694 12.4409 15.2219C12.0972 14.8878 11.6174 14.8922 11.3145 15.1994C11.0013 15.5169 11.0004 15.963 11.3475 16.3196C12.0018 16.993 12.6665 17.6559 13.3381 18.312C13.6835 18.6495 14.1017 18.6903 14.4245 18.377C15.5014 17.3305 16.5731 16.2762 17.6031 15.1846C17.7636 15.0145 17.7948 14.5971 17.7081 14.3585C17.636 14.1581 17.3115 13.9481 17.0859 13.9324C16.8568 13.9168 16.5652 14.086 16.3821 14.2605C15.5587 15.0466 14.7638 15.8623 13.9091 16.717L13.9099 16.7162Z" fill="black"/>
<path d="M0.00170007 11.3275C0.00170007 8.47869 -3.5418e-05 5.62902 0.00256782 2.78022C0.00343556 1.22956 0.840809 0.38958 2.38366 0.388712C6.70936 0.387845 11.0342 0.387845 15.3599 0.388712C16.8897 0.388712 17.7297 1.22261 17.7306 2.7403C17.7315 4.28749 17.7341 5.83554 17.7245 7.38273C17.7219 7.89383 17.4182 8.28606 16.9609 8.42489C16.5036 8.56373 15.9847 8.40233 15.7461 7.99015C15.6298 7.78884 15.563 7.53112 15.5586 7.29683C15.5395 6.21215 15.5517 5.12747 15.5499 4.04278C15.5482 2.99889 15.1109 2.55634 14.0835 2.55634C10.5969 2.55634 7.11026 2.55634 3.62453 2.55634C2.63183 2.55634 2.18928 2.99368 2.18928 3.97857C2.18842 8.83794 2.18842 13.6982 2.18928 18.5575C2.18928 19.6795 2.60667 20.09 3.74341 20.0926C4.68405 20.0952 5.62382 20.09 6.56445 20.0943C7.26472 20.0978 7.73764 20.5239 7.74719 21.1478C7.7576 21.7942 7.28468 22.2463 6.56532 22.2507C5.11879 22.2576 3.67226 22.2628 2.22573 22.2498C0.881593 22.2385 0.00864203 21.3578 0.0043033 20.0058C-0.0035064 17.1136 0.00170007 14.2206 0.00170007 11.3275Z" fill="black"/>
<path d="M8.08045 7.22997C7.25609 7.22997 6.4326 7.23431 5.60824 7.22823C4.8776 7.22303 4.38733 6.79263 4.37865 6.16438C4.36997 5.52138 4.87153 5.0823 5.62647 5.08057C7.27431 5.07796 8.92216 5.07796 10.5709 5.08057C11.3275 5.08143 11.8256 5.51791 11.8187 6.16178C11.8117 6.80564 11.3189 7.22476 10.5518 7.22823C9.72743 7.2317 8.90394 7.22823 8.07958 7.22823L8.08045 7.22997Z" fill="black"/>
<path d="M7.01485 11.396C6.52371 11.396 6.03257 11.4047 5.54229 11.3943C4.85417 11.3795 4.37344 10.9239 4.37951 10.3113C4.38559 9.69522 4.86718 9.25354 5.55878 9.24833C6.5402 9.24226 7.52248 9.24226 8.5039 9.24833C9.20677 9.25267 9.66928 9.67613 9.67622 10.3052C9.68317 10.9361 9.22673 11.3778 8.53167 11.3934C8.02664 11.4047 7.52075 11.396 7.01572 11.396H7.01485Z" fill="black"/>
<path d="M5.91628 15.5794C5.68633 15.5603 5.45204 15.5655 5.22903 15.5178C4.69884 15.4032 4.35261 14.9268 4.39599 14.4079C4.44025 13.8769 4.84028 13.4595 5.37655 13.4196C5.70716 13.3953 6.04124 13.4039 6.37358 13.4135C7.00096 13.4326 7.46 13.8829 7.46781 14.473C7.47562 15.0362 7.03828 15.5004 6.4378 15.5559C6.26598 15.5716 6.09157 15.5585 5.91802 15.5585L5.91628 15.5802V15.5794Z" fill="black"/>
</g>
<defs>
<clipPath id="clip0_3_73">
<rect width="20.6905" height="22.2221" fill="white" transform="translate(0 0.388672)"/>
</clipPath>
</defs>
</svg>
