<svg width="19" height="19" viewBox="0 0 19 19" fill="none" xmlns="http://www.w3.org/2000/svg">
<g clip-path="url(#clip0_3_81)">
<path d="M0 9.43486C0.0122035 4.16865 4.15244 0.0186542 9.17051 -5.77905e-05C13.9461 -0.0179562 17.9904 3.7041 18.3719 8.46916C18.4224 9.10048 18.3256 9.20543 17.6861 9.20706C17.4282 9.20706 17.1703 9.1973 16.9132 9.2095C16.5235 9.2274 16.3665 9.05899 16.3307 8.6636C16.0419 5.47605 13.8884 2.97596 10.8163 2.23725C6.11069 1.10558 1.59215 5.0595 2.08842 9.875C2.4472 13.3587 5.08641 15.9751 8.60101 16.3323C9.14203 16.3876 9.20142 16.4494 9.20549 16.9758C9.20793 17.2467 9.20874 17.5184 9.20549 17.7894C9.19898 18.3084 9.09322 18.4174 8.5701 18.3768C6.79896 18.2401 5.17834 17.6706 3.75786 16.5975C1.30333 14.7442 0.0846108 12.2522 0 9.43486Z" fill="black"/>
<path d="M9.20795 3.95154C11.8569 3.95479 14.1365 5.97162 14.4107 8.55632C14.4652 9.06886 14.3537 9.20066 13.8526 9.20636C13.5548 9.21042 13.2554 9.19334 12.9585 9.21042C12.5859 9.23158 12.4289 9.05422 12.363 8.70194C12.101 7.29448 11.2638 6.402 9.87507 6.07006C8.13567 5.65352 6.40847 6.80878 6.04643 8.59862C5.70148 10.3063 6.8779 12.0433 8.59289 12.3581C9.18517 12.4671 9.20388 12.4891 9.20551 13.096C9.20551 13.3669 9.21039 13.6387 9.20388 13.9096C9.1933 14.3391 9.05337 14.4587 8.62055 14.4213C6.47356 14.2366 4.55435 12.5241 4.07354 10.3641C3.34133 7.07237 5.84223 3.9491 9.20713 3.95317L9.20795 3.95154Z" fill="black"/>
<path d="M18.7152 13.0935C18.6746 13.0609 18.6176 13.0487 18.5672 13.0292C15.7661 11.9455 12.965 10.8619 10.163 9.77819C10.1378 9.76842 10.1118 9.75866 10.0833 9.74808C9.90351 9.683 9.70581 9.83351 9.74405 10.0206C9.74649 10.032 9.74975 10.0434 9.75381 10.0548C10.8594 12.9495 11.9748 15.8401 13.0943 18.7298C13.1342 18.8324 13.2359 18.9105 13.3091 18.9999C13.3896 18.9031 13.5035 18.8193 13.5442 18.7079C13.8867 17.7674 14.2724 16.8367 14.5311 15.8726C14.7328 15.1192 15.1388 14.7385 15.88 14.5335C16.8424 14.2674 17.7731 13.8859 18.7144 13.5442C18.8177 13.5068 18.8999 13.4108 18.9918 13.3416C18.8999 13.2578 18.8112 13.1708 18.7152 13.0935Z" fill="black"/>
<path d="M10.5462 9.42351C10.1525 9.31856 9.788 9.03625 9.41945 9.38934C9.00128 9.79043 9.35762 10.1923 9.43979 10.5893C8.94189 10.761 8.39761 10.5617 8.06812 10.098C7.7069 9.58947 7.7248 8.92235 8.11124 8.43503C8.49768 7.94851 9.14447 7.77766 9.71884 8.00953C10.2908 8.24058 10.6056 8.76452 10.5454 9.42351H10.5462Z" fill="black"/>
</g>
<defs>
<clipPath id="clip0_3_81">
<rect width="18.9919" height="19" fill="white"/>
</clipPath>
</defs>
</svg>
