<svg width="23" height="17" viewBox="0 0 23 17" fill="none" xmlns="http://www.w3.org/2000/svg">
<path d="M1.54961 7.60671C1.28804 7.60671 1.0822 7.66334 0.936584 7.59323C0.718162 7.48806 0.435021 7.33076 0.367607 7.13121C0.19143 6.61077 0.0997468 6.05888 0.00986097 5.51327C-0.0566546 5.11148 0.206711 4.83463 0.641759 4.82384C1.2404 4.80946 1.84084 4.79868 2.43768 4.82834C2.75138 4.84362 2.87902 4.72407 2.98508 4.44722C3.16755 3.97352 3.39856 3.5196 3.61069 3.05759C4.17967 1.81986 5.15133 1.06661 6.44389 0.697183C9.63933 -0.216956 12.8447 -0.19808 16.0716 0.543478C17.9124 0.966841 19.152 2.05806 19.7389 3.81443C20.0221 4.66295 20.4553 4.97575 21.3119 4.82924C21.6463 4.77171 21.9995 4.81036 22.3438 4.82294C22.8382 4.84092 23.0719 5.14114 22.9793 5.63012C22.9011 6.0409 22.8112 6.44988 22.7258 6.85976C22.5964 7.48267 22.4562 7.59862 21.8198 7.60761C21.7065 7.60941 21.5924 7.6184 21.5663 7.62019C21.8153 8.26917 22.147 8.89567 22.2917 9.56353C22.5685 10.8408 22.1982 11.9842 21.3506 12.9819C21.222 13.1338 21.1402 13.3684 21.1303 13.5697C21.1007 14.1369 21.125 14.7077 21.1187 15.2758C21.1115 15.9355 20.7897 16.2735 20.129 16.2906C19.5304 16.3059 18.9308 16.3023 18.3322 16.2924C17.6176 16.2807 17.2967 15.9544 17.2796 15.2416C17.2742 15.0187 17.2796 14.7967 17.2796 14.5414H5.72211C5.72211 14.8192 5.73469 15.0852 5.71941 15.3486C5.68615 15.9373 5.37335 16.2663 4.7873 16.2861C4.12933 16.3086 3.46957 16.3095 2.8116 16.2861C2.20577 16.2645 1.89657 15.9176 1.88398 15.3036C1.87859 15.0493 1.8705 14.794 1.88488 14.5405C1.92982 13.7585 1.7905 13.1005 1.29433 12.4003C0.319967 11.0233 0.400865 9.5051 1.25748 8.04625C1.33118 7.92041 1.41837 7.80176 1.54961 7.60581V7.60671ZM4.36933 5.71282H18.6297C18.4077 5.18878 18.1821 4.71868 18.0068 4.2306C17.623 3.16185 16.8545 2.57041 15.7767 2.29715C12.9031 1.56998 10.0348 1.57267 7.16568 2.31333C6.14367 2.5767 5.39852 3.14478 5.02549 4.16498C4.84123 4.66744 4.60842 5.15283 4.36933 5.71282ZM4.96797 12.1702C5.90727 12.1819 6.71894 11.3792 6.72164 10.4363C6.72434 9.5087 5.95491 8.72219 5.0201 8.69703C4.08079 8.67186 3.26373 9.45836 3.24485 10.4058C3.22598 11.3442 4.02147 12.1585 4.96707 12.1702H4.96797ZM19.7731 10.4192C19.7677 9.46375 18.9713 8.68085 18.0212 8.69523C17.0864 8.71051 16.3206 9.48532 16.3143 10.4219C16.308 11.3738 17.099 12.172 18.0464 12.1693C19.0001 12.1666 19.7785 11.3774 19.7731 10.4183V10.4192Z" fill="#242E69"/>
</svg>
